<svg id="Capa_1" data-name="Capa 1" xmlns="http://www.w3.org/2000/svg" viewBox="0 0 1661 484"><defs><style>.cls-1{fill:#ed1d23;}.cls-2{fill:#221e1f;}.cls-3{fill:#ed1c23;}.cls-4{fill:#ed1e24;}.cls-5{fill:#ed1d24;}.cls-6{fill:#fefefe;}.cls-7{fill:#fefdfd;}.cls-8{fill:#fff;}</style></defs><title>Mesa de trabajo b1e</title><path class="cls-1" d="M199.57,22.79c14.63,24.72,29.11,49.18,44,74.32l1.66,2.8c-6.67-2.76-12.82-4.81-19.39-5.24-19.91-1.29-37.15,5.18-51.4,18.76-19.94,19-29,43.31-32.42,70.09a18.64,18.64,0,0,1-.14,2c-3.53,13.77,2.79,22.22,14.4,28.79A167.1,167.1,0,0,0,231.23,236a123.13,123.13,0,0,0,22.39-.77c5.08-.68,8.26-3.43,10.32-8.22,10.49-24.29,14-49.54,11.56-76.08l110.32,187.1H200.08s-.2-.37-.08-.57c4.71-7.81,4.73-7.93-4.22-8.68a129.06,129.06,0,0,1-39-9.77c-1.77-.74-3.71-2.3-5.54-.53s-.69,3.76-.3,5.69c1.13,5.61,4.58,9.82,9,14H17.64Z"/><path class="cls-2" d="M1182.74,343.16c-19,.26-36.78-2.83-52.91-12.23-22-12.83-33.78-32.47-35.91-57.71-3.11-36.78,5.65-70.63,27.15-100.67,19.66-27.47,46.67-42.64,80.51-45.8,19.31-1.81,38,.11,55.86,7.69,23.39,9.95,37.51,28.14,42.35,52.67,8.18,41.52-.18,79.87-25.87,113.7-16.79,22.13-39.56,35.17-66.91,40.28A124.25,124.25,0,0,1,1182.74,343.16Z"/><path class="cls-2" d="M1419.53,338.2c7.94-14.25,15.37-27.68,22.87-41.06q45.63-81.33,91.2-162.7c1.55-2.77,3.12-3.52,6.07-3.5q32,.18,64,0c2.81,0,4,.21,4.56,3.76,3.29,22.68,7.13,45.29,10.64,67.95,3.15,20.39,6.06,40.82,9.21,61.21,3.16,20.54,6.28,41.1,9.81,61.58,2.2,12.79,2.53,12.74-10.37,12.74-13.5,0-27-.16-40.48.11-3.62.07-4.59-1.51-4.93-4.43-1.36-11.49-2.88-22.95-4-34.46-.28-3-1.29-3.48-3.92-3.47-23,.08-46,.11-69,0-2.91,0-4.06,1.36-5.22,3.55-6.26,11.84-12.63,23.64-18.89,35.49-.95,1.79-1.58,3.32-4.2,3.3C1458.1,338.14,1439.28,338.2,1419.53,338.2Z"/><path class="cls-2" d="M700.37,338.2c-22.83,0-45.65-.06-68.48.05-3.86,0-5.3-.06-4.29-5.07,5.82-28.77,11-57.67,16.47-86.5,5.46-28.65,11-57.28,16.54-85.93,1.56-8.1,3.08-16.2,4.4-24.34.63-3.87,1.85-5.62,6.45-5.56,24,.32,48,.15,72,.15,21,0,42,0,63,0,3.31,0,5-.19,3.88,4.41a318.26,318.26,0,0,0-6,32.56c-.61,4.62-2.38,5.17-6.31,5.14-25.33-.14-50.65-.07-76-.07a20,20,0,0,1-3,0c-3.5-.54-4.69.68-5.26,4.42-1.59,10.44-3.62,20.85-6.09,31.12-.89,3.71.6,3.45,3,3.45q22.25,0,44.49,0c10.33,0,20.67.15,31-.07,3.89-.09,4.21,1.06,3.43,4.58-2.41,10.95-4.58,22-6.39,33-.58,3.58-1.75,4.62-5.33,4.6-24.66-.15-49.32,0-74-.2-4.13,0-5.24,1.6-5.85,5.07-2,11.2-3.78,22.44-6.34,33.51-1,4.15.22,4.39,3.58,4.38,27.16-.07,54.32,0,81.48-.11,4.18,0,5.75.17,4.48,5.29-2.63,10.71-4.35,21.66-6.18,32.55-.57,3.36-2.35,3.68-5.16,3.67C746.7,338.16,723.54,338.2,700.37,338.2Z"/><path class="cls-2" d="M1399.89,131c25.49,0,51,.08,76.48-.08,4.17,0,6.11,0,4.83,5.37-2.79,11.69-4.83,23.57-6.83,35.43-.52,3.07-1.72,3.56-4.46,3.54-15.33-.12-30.66,0-46-.08-2.86,0-4.48,0-5.19,4-5.33,29.52-11.13,59-16.8,88.43-4.33,22.5-8.7,45-13,67.51-.47,2.54-1.64,3.18-4,3.16q-24.74-.12-49.48,0c-2.27,0-3.4.15-2.75-3.15,5.83-29.43,11.33-58.92,17-88.39q6.48-34,13.1-68c.64-3.24-.74-3.58-3.4-3.57-15.33.08-30.66,0-46,.1-3.27,0-4.56,0-3.61-4.2q4.13-18.08,6.93-36.42c.55-3.58,2-3.69,4.71-3.68Q1360.65,131.07,1399.89,131Z"/><path class="cls-2" d="M860.56,294h38.55c11.82,0,23.65.07,35.48-.05,2.86,0,3.73.56,3.11,3.64-2.41,11.78-4.61,23.61-6.73,35.45-.66,3.69-1.82,5.33-6.26,5.31-41.48-.25-83-.17-124.45-.12-3.11,0-4.59.1-3.73-4.23,7.72-39.14,15.05-78.35,22.54-117.53,5.29-27.66,10.69-55.29,15.94-82.95.43-2.28,1.69-2.53,3.5-2.53,16.66,0,33.32.1,50-.05,3.56,0,2.73,2.13,2.4,3.87-2,11-4.26,22-6.37,33Q877.21,206,870,244.11q-4.19,21.86-8.4,43.7C861.18,289.74,860.93,291.7,860.56,294Z"/><path class="cls-2" d="M1039.61,131c-5.93,31.37-11.76,62.47-17.69,93.56-4.1,21.53-8.23,43.06-12.61,64.53-.84,4.13.07,5,4.18,5,22.65-.19,45.31,0,68-.16,4,0,5,.6,4,4.94-2.55,11.42-4.53,23-6.47,34.53-.6,3.51-1.73,4.91-5.64,4.9q-62.22-.24-124.44-.06c-3.47,0-5.14.12-4.18-4.63,6.9-34.25,13.42-68.58,20-102.9q8.25-43.23,16.32-86.48c0-.16,0-.35,0-.49,1.7-4,.11-10,3.35-12s8.38-.72,12.69-.73C1011.15,131,1025.14,131,1039.61,131Z"/><path class="cls-3" d="M1092,397c-1.83,0-3.67-.09-5.5,0-6.85.36-8.69,2.5-9.52,9.37-1.49,12.29-3.26,24.55-5.06,36.81-.54,3.7-3.66,1.61-5.6,2-2.58.49-2.55-1.37-2.32-3.12,1-7.53,2-15.06,3.07-22.57q1.83-12.76,3.83-25.49c.46-2.88,6.7-4.91,7.65-2.48,1.28,3.26,2.34,1.36,3.69.78,7-3,14.22-4.2,21.74-2.24,1,.25,2.25.45,2.69,1.12,3.34,5.12,6.74,2.42,10.61.63a30.32,30.32,0,0,1,20.85-1.66,9.61,9.61,0,0,1,6.79,10.36q-2.82,21.38-6,42.69c-.55,3.68-3.67,1.58-5.61,2s-2.62-.72-2.35-2.62c1.22-8.84,2.39-17.69,3.6-26.53.64-4.74,1.43-9.46,1.93-14.2.25-2.34-.74-4.67-3.3-4.68-6.11,0-12.33-1.18-18.3,1-2,.74-3.61,1.77-3.94,4.49-1.51,12.64-3.3,25.24-5,37.86-.56,4.16-3.72,6-7.61,4.69-1.67-.58-1.28-1.67-1.11-2.77q2.8-19.11,5.63-38.22c.82-5.49-.66-7.18-6.37-7.22H1092Z"/><path class="cls-3" d="M1559.91,393.41c1.06-7.47,2.48-14.72,3-22,.32-4.67,3.27-3,5.58-3.37,3.44-.49,2.78,1.89,2.53,3.77-1.76,13.27-3.53,26.53-5.39,39.78q-2.1,15-4.45,29.89c-.2,1.28.7,3.47-1.55,3.61-2,.13-4.91,1.3-6-1-1.36-2.87-2.38-.93-3.55-.34-8.1,4.09-16.67,4.12-25.22,2.41-5.92-1.19-8.46-4.94-7.76-10.86,1.21-10.17,2.51-20.34,4.3-30.42,1.92-10.76,7.73-15.4,19-15.8C1547.27,388.84,1551.86,388.92,1559.91,393.41Z"/><path class="cls-3" d="M1583.3,397c-.39-4.06,1.24-6.39,5-6.77,7.71-.8,15.36-1.58,23.22-.54,8.67,1.14,11.6,6.54,10.22,15.29-1.85,11.75-3.76,23.49-4.6,35.38-.12,1.71,1.71,4.57-2.19,4.92-3.71.33-4.55-.1-5.71-4.16-7.58,7.59-16.8,6.88-26,4.93a11.47,11.47,0,0,1-9.09-12.09c.95-12.69,3.25-19.88,20.14-20.81,5-.28,10-.16,15,0,2.54.07,3.75-.84,3.7-3.39a20.65,20.65,0,0,1,.1-2.49c.94-10.16.85-10.26-9.31-10.26Z"/><path class="cls-3" d="M1386.85,441.06c-7.88,7.63-17.11,6.88-26.28,4.86-5.75-1.27-8.54-5.78-8.61-11.78-.18-14.49,6.17-21,20.7-21.09,4,0,8-.41,12,.11,4.35.58,5.87-1.32,6.15-5.13.13-1.66.06-3.34.32-5,.72-4.51-1.74-6.05-5.65-6.09-7-.08-14,0-21-.07-1.23,0-3.3,1-3.44-1.47-.1-1.72-.53-3.81,2.06-4.4,10.1-2.3,20.28-3.37,30.32-.18,4.92,1.56,6.77,6.42,6.14,11.56-1.55,12.46-4.29,24.76-4.64,37.38-.05,1.79,1.69,4.68-1.69,5.32C1390.2,445.68,1387.13,445.67,1386.85,441.06Z"/><path class="cls-3" d="M1258.48,447h-4c-14-.1-18.91-5.41-17.45-19.21.8-7.56,1.82-15.11,3.18-22.59,1.87-10.21,8.79-15.68,20.19-16.1a69.36,69.36,0,0,1,15.88.76c6.15,1.2,10.54,5.4,10.63,11.78a122.1,122.1,0,0,1-4.46,33.28c-2.12,7.89-8.49,11.48-16.49,12-2.48.16-5,0-7.48,0Z"/><path class="cls-3" d="M1181.18,419.19c-4.5,0-9,.06-13.5,0-2.26,0-3.7.22-3.85,3.13-.14,2.6-.92,5.18-.9,7.86,0,6.81,2.63,9.65,9.57,9.79s14,0,21,.1c1.23,0,3.18-1,3.54,1.41.3,2-.83,3.06-2.64,3.58-2.06.59-4.1,1.68-6.17,1.75-6.65.22-13.42.81-20-.1-9.51-1.32-15.13-7.24-13.38-17.56,1.08-6.35,1.17-12.88,2.28-19.23,3.21-18.34,14.32-21.28,29.56-20.64a31.42,31.42,0,0,1,7.71,1.7c6.48,2,8.84,9.73,8.27,14.81-.11,1-.55,1.92-.62,2.9-.91,11.49-.83,10-11.4,10.5C1187.52,419.31,1184.35,419.2,1181.18,419.19Z"/><path class="cls-3" d="M1479.35,439.8c3.89.54,8.1-.88,12.42-.94,2.77,0,4-1.4,4.42-4.6,1.67-13.6,4-27.11,5.7-40.69.57-4.47,3.51-2.34,5.54-2.72,2.86-.55,2.81,1.42,2.54,3.37q-2.17,15.72-4.39,31.44-1.12,7.83-2.42,15.64c-.57,3.37-5.3,5.93-7.18,3.54-2.52-3.2-4-.89-5.84-.17a40,40,0,0,1-23.44,1.45c-6-1.37-8.34-4.77-7.59-10.89,1.26-10.34,2.85-20.63,4.33-30.93.47-3.27,1.47-6.54,1.4-9.79-.13-5.37,3.61-3.65,6.13-3.61,3.92.06,2,3.32,1.84,4.85-1.45,12-3.22,23.94-4.87,35.9-.84,6.09.43,7.71,6.45,8.13C1475.88,439.89,1477.39,439.8,1479.35,439.8Z"/><path class="cls-3" d="M1006.68,439.79c3.78.56,7.81-.87,12-.93,2.6,0,4.15-1,4.56-4.42,1.64-13.61,4-27.13,5.69-40.74.55-4.47,3.38-2.5,5.41-2.86,3.3-.58,2.94,1.77,2.67,3.75q-2.19,15.93-4.5,31.86c-.75,5.23-1.55,10.46-2.36,15.69-.19,1.19.34,3-1.71,3s-5.22,1.16-6-.74c-1.17-3.06-2.18-1.22-3.38-.63-8.27,4-16.94,4.23-25.66,2.28-5.5-1.23-8-4.63-7.29-10.13,1.79-14.41,3.84-28.79,6-43.16.53-3.55,3.71-1.48,5.68-1.87,2.15-.44,2.46,1,2.23,2.73-1.14,8.5-2.24,17-3.41,25.5-.68,4.9-1.54,9.78-2.18,14.69-.33,2.61.84,4.4,3.45,5.27S1003.47,439.8,1006.68,439.79Z"/><path class="cls-3" d="M1429,432.84c6-12.15,12.24-24.14,17.69-36.51,2.3-5.22,5.19-6.56,10.68-4.92-3.5,7-6.92,13.91-10.4,20.8-8.42,16.68-17,33.28-25.23,50.06-2.27,4.64-4.88,7.17-10.51,5.27,3.15-6.08,6.15-12.32,9.59-18.31,1.81-3.16,1.77-6.1.89-9.4-3.93-14.81-7.85-29.62-11.5-44.5-.28-1.12-3.45-4,.75-4.41,2.63-.23,6.06-1.49,7,3.1,1.46,6.77,3.27,13.46,5,20.17,1.59,6.19,3.25,12.37,4.88,18.55Z"/><path class="cls-3" d="M946.34,397.64c-.29-4.66,1.92-6.43,6.43-5.65,3,.52,4.52-.46,4.56-3.86,0-2.77,1-5.51,1.33-8.29.54-4.88,4.26-3.81,7.15-3.74,2.05,0,1.16,2.12,1,3.18-.39,3.27-1.06,6.51-1.68,9.75-.39,2.05.09,3.08,2.47,3,4.32-.14,8.65-.07,13,0,1.51,0,3.63-.63,3.32,2.19-.23,2-.45,4-3.33,3.86-4.33-.13-8.66,0-13-.05-2.22,0-3.46.13-3.82,3-1.34,11-3.15,21.9-4.76,32.84-.64,4.4,1,6.62,5.75,6.21a93.66,93.66,0,0,1,9.48,0c1.2,0,2.88-.49,2.72,1.73-.1,1.41.33,2.92-1.83,3.46-6.67,1.7-13.34,2.72-20,.12-3.61-1.41-4.78-4.48-4.35-8.1,1.15-9.5,2.41-19,3.64-28.49.42-3.25,2.18-7.12,1-9.58C954,396.13,949.34,399.07,946.34,397.64Z"/><path class="cls-3" d="M1228.83,390.55c-2.7,19.28-5.26,37.75-7.89,56.21-.44,3.1-1.08,6.17-1.76,9.22-2.67,12-14.09,14.07-23.08,12.64-1.67-.26-3.56-.72-3.09-3.46.43-2.51,1.63-3.38,4-3.13,1.31.13,2.66,0,4,0,7.34,0,10-2.52,11-9.9,2.64-19.31,5.37-38.61,8-57.91C1220.9,388.2,1225.4,391.79,1228.83,390.55Z"/><path class="cls-3" d="M1334.28,390.29c1.31,6.49-2.35,7.29-7.53,6.83a26.8,26.8,0,0,0-8.37.65c-9.55,2.13-9.35,2-10.45,11.28-1.3,11-3.26,21.85-4.54,32.82-.6,5.19-4.25,3.36-6.64,3.16-3.39-.29-1.34-2.89-1.11-4.58q3.15-22.83,6.36-45.64c.22-1.56-.85-4.29,2.22-3.88,2,.27,5.26-2.17,5.83,2.24.36,2.78,2,.71,2.77.38C1321.93,389.78,1324.84,389.31,1334.28,390.29Z"/><path class="cls-4" d="M1640.6,435.05a47.35,47.35,0,0,0-.56,5.67c.07,3.35-1.23,5-4.71,4.46-1.81-.31-4.55,1.15-5.23-1.14-.79-2.61-.16-5.59,1-8.2.59-1.32,2-.73,3.12-.77C1636.35,435,1638.49,435.05,1640.6,435.05Z"/><path class="cls-5" d="M1223,374.05c-.1-3.89.73-6.9,5.74-6.08,1.56.25,4.08-.18,3,2.33-1.33,3,1.53,9.13-6,8.06C1222.17,377.86,1222.85,376.16,1223,374.05Z"/><path class="cls-6" d="M202,317.9c-22.32-1.85-48.25-7.53-69.21-26.47-23.46-21.21-19.17-53.41-4.14-73.36,3.55-4.71,5.56-4.79,9.85-1.28,25.17,20.61,54.39,30.07,86.54,31.49,11,.49,21.93.2,32.76-2,4.13-.84,5.83,1.7,6.57,5.1,1.9,8.62,1.23,17.2-1,25.66C256.34,303.46,236.33,317.9,202,317.9Z"/><path class="cls-6" d="M1244,210.64c-1.46,25.72-5.61,50.69-21.72,72-11.37,15-26.86,20.68-45.22,18.22-12.52-1.67-22.19-11.2-23.81-25.26-3.7-32.28,1.13-63,21.72-89.35,11.33-14.48,27.17-19.59,45.33-16.09,12.06,2.32,20.66,12.75,22.66,26.59A69.65,69.65,0,0,1,1244,210.64Z"/><path class="cls-6" d="M1563.77,172.94a319.56,319.56,0,0,0,3,34.82c2,14.73,3.45,29.54,5.39,44.29.42,3.15-.25,3.87-3.35,3.83-13.49-.15-27-.19-40.48,0-4,.06-5-.52-2.94-4.5,8.12-16.07,15.86-32.32,23.92-48.41,4.38-8.74,8.07-17.76,11.59-26.86C1561.37,174.92,1561.42,173.5,1563.77,172.94Z"/><path class="cls-6" d="M1536.24,439.85a44.05,44.05,0,0,1-6.44-.49c-3.8-.85-4.55-3.29-4.14-6.54q1.66-13.31,3.46-26.58c1.09-8,3.55-10.07,11.81-10.07a44.13,44.13,0,0,1,6,.11c12.46,1.76,13,2.7,10.76,15-1.41,7.8-2.48,15.66-3.5,23.53-.28,2.15-.84,3-3.17,3.44A81.5,81.5,0,0,1,1536.24,439.85Z"/><path class="cls-6" d="M1595.58,440.13h-1.49c-11.26,0-14.89-5.85-10-16.18,1.73-3.7,5-4.63,8.61-4.74,5.14-.17,10.29,0,15.44-.07,1.94,0,3.27.29,3,2.67-.39,3.94-.61,8-2,11.67C1606.49,440.3,1600.6,440.45,1595.58,440.13Z"/><path class="cls-7" d="M1372,440.13a4,4,0,0,1-.49,0c-3.78-.35-8.35,1.23-10.55-3.36s-.54-9.41,1.27-13.83c1.32-3.23,4.72-3.52,7.58-3.68,5.46-.3,10.94,0,16.41-.13,2.74-.07,3,1.32,2.59,3.43-.22,1.13-.53,2.25-.66,3.39C1386.71,438,1384.32,440.15,1372,440.13Z"/><path class="cls-6" d="M1258.92,440.15c-2,0-4,0-6,0-6.48,0-9-2.68-8.21-9.28,1-8.56,2.09-17.11,3.45-25.61,1.16-7.3,3.92-9.38,11.48-9.41,4.16,0,8.32,0,12.48,0,4.59-.07,7,2.55,6.93,6.7-.11,10.62-2.08,21-4.2,31.41-.83,4-3.85,6.49-8.45,6.22C1263.92,440,1261.41,440.15,1258.92,440.15Z"/><path class="cls-6" d="M1179,413.15c-3.65,0-7.32-.18-11,.05-3,.18-3.22-1.07-2.79-3.55,1.93-11.36,4.55-13.64,16-13.65h3.49c9.4.07,13.81,7.82,9.24,16.12-.79,1.42-2,1-3,1C1187,413.19,1183,413.15,1179,413.15Z"/><path class="cls-8" d="M275.5,151l-30.27-51-1-.39-.91-.37L242,98.64l-.89-.34-1.08-.4L239,97.52,237.45,97l-1.25-.39-1.12-.32L233.93,96l-1-.24-.62-.14-.83-.17-1.16-.22-1.25-.2-1.67-.21-1.08-.1-1.09-.07-2.17-.1h-5.29l-3.3.26L212.9,95l-2.58.35-.86.13-1.22.22-.79.15-.85.18-.85.19-1.29.31-.86.22-1.2.33-1.08.32-1,.32-1.05.35-1,.35-.93.34-.78.3-1.06.44-.82.34-.93.42-1,.48-.8.38-.77.39-1.11.58-.88.47-.73.41-1.59.94-1.23.76-1.31.86-1.22.84-1,.72-.87.64-1.11.85-1.29,1-.64.53-.52.44-.45.38-.32.28-.38.34-.39.34-.35.32-.46.42-.4.38-.35.33-.36.34-.41.4-.29.28-.3.3-.33.32-.5.5-.51.53-.5.51-.36.38-.43.45-.33.35-.23.25-.35.39-.3.33-.25.28-.24.26-.28.32-.29.32-.26.31-.31.35-.25.3-.36.42-.28.33-.26.32-.26.31-.25.31-.39.48-.33.41-.25.32-.32.41-.36.46-.27.36-.29.38-.44.59-.33.44-.29.4-.27.38-.3.42-.35.48-.29.42-.41.59-.4.6-.35.52-.29.45-.29.43-.31.49-.24.38-.26.42-.25.4-.28.45-.28.46-.32.54-.28.47-.19.33-.27.46-.21.36-.26.45-.24.44-.23.41-.28.52-.21.38-.31.59-.17.33-.17.32-.18.35-.19.36-.21.41-.26.52-.16.32-.27.55-.27.57-.26.54-.3.64-.19.42-.19.41-.17.37-.16.36-.18.4-.16.38-.17.38-.22.51-.18.43-.16.39-.24.57-.21.53-.21.53-.26.64-.18.47-.19.48-.2.53-.2.55-.18.48-.18.5-.18.5-.2.58-.19.55-.22.64-.22.65-.16.5-.13.42-.15.46-.12.38-.18.56-.15.48-.15.5-.16.54-.28,1-.2.7-.13.46-.2.75-.28,1.05-.13.5-.15.58-.14.57-.09.35-.07.29-.07.3-.1.38-.07.3-.12.51-.09.41-.09.37-.16.72-.1.48-.1.44-.1.48-.11.5-.12.6-.12.59-.12.63-.12.62-.13.65-.11.62-.13.72-.1.55-.13.77-.1.61-.1.61-.1.62-.07.44-.1.6-.1.67-.07.51-.05.37-.08.54-.08.6-.1.69-.07.58-.05.41,0,.4v.47l0,.44,0,.31-.1.43-.09.37-.09.4-.12.55-.11.55-.12.64-.11.72-.09.67-.06.61-.06.64,0,.57v.75l0,.42v.93l0,.57,0,.35,0,.44.06.51,0,.34.07.46.08.43.08.42.09.4.1.42.12.46.13.43.13.43.16.45.18.49.14.36.22.5.16.36.09.2.11.22.11.21.18.35.2.35.17.3.16.27.2.32.18.28.16.25.18.25.22.32.25.35.2.25.19.24.23.29.17.21.17.2.21.24.25.28.23.25.27.29.28.29.24.24.22.21.18.18.21.2.26.24.25.23.15.13.3.27.25.21.24.2.36.3.3.23.24.2.26.19.21.16.22.17.23.16.27.21.27.19.28.19.33.23.28.19.31.21.25.16.22.14.28.18.31.2.35.21.33.2.32.2.28.17.28.16.24.14.32.18.3.17.28.15.4.23.35.19.3.17.31.17.34.19.32.17.27.15.33.18.45.24.32.17.43.23.38.2.49.26.4.2.5.26.36.19.58.29.52.26.45.23.44.22.36.18.43.21.27.13.39.19.36.17.4.19.42.2.41.2.48.23.55.25.57.26.39.18.28.13.33.15.29.13.45.2.31.14.34.15.26.11.44.19.44.19.36.16.41.18.44.18.29.12.43.19.49.2.38.15.44.18.45.18.43.18.47.19.25.09.37.15.25.1.45.17.33.13.28.11.34.13.34.13.27.1.38.14.22.08.27.1.29.11.27.1.33.12.28.1.31.11.28.1.31.11.33.12.34.12.25.08.25.09.19.07.3.1.22.07.19.07.25.08.29.1.25.08.28.1.36.12.39.13.44.14.39.12.39.13.37.11.28.09.29.09.42.13.29.09.35.11.4.12.27.08.54.16.36.11.51.15.45.13.37.1.37.11.6.16.49.14.71.19.6.16.67.18.48.12.43.11.46.12.47.12.74.18.72.17.65.16.52.12.6.13.22.05.32.07.22.05.54.12.39.09.47.1.52.11.57.12.64.13.72.14.45.09.37.07.44.09.56.1.43.08.6.11.38.07.34.06.57.1.5.08.61.1.52.09.52.08.54.08.44.07.51.08.69.1.46.07.39.05.71.1.73.09.87.12.79.09.65.08.52.06.81.09.54.06,1.1.11,1.25.12.89.08.81.07.51,0,.55.05.81.06.69.05,1.12.07.35,0,.72,0,1.15.06.51,0,.82,0,1,0,.72,0,1.13,0,1.13,0h4.05l.71,0H242l.91,0,.51,0,.85,0,.43,0,.63,0,.39,0,.45,0,.65,0,.66-.05.59,0,.55-.05.58,0,.62-.06.47,0,.52-.06.65-.07.51,0,.42-.05.62-.08.61-.08.7-.11.54-.11.52-.12.68-.19.57-.19.63-.25.53-.25.66-.35.58-.35.5-.35.44-.35.48-.42.38-.36.62-.69.43-.52.29-.39.35-.52.69-1.17.48-1,.5-1.14.55-1.29.36-.87.38-.95.17-.44.21-.51.19-.48.22-.58.18-.47.2-.54.2-.53.13-.33.17-.48.19-.52.23-.63.31-.89.36-1,.33-1,.28-.82.23-.73.21-.65.24-.77.2-.63.24-.81.25-.82.2-.71.13-.45.12-.41.18-.65L271,207l.24-.89.18-.66.14-.56.15-.58.16-.64.14-.56.1-.43.09-.37.15-.62.06-.3.07-.3.12-.52.1-.45.11-.49.09-.43.13-.58.06-.28.07-.35.07-.32.06-.32.09-.46.12-.62.08-.41.13-.66.09-.52.1-.53.06-.32.1-.56.08-.5.09-.57.09-.49.07-.43.09-.61.09-.61.06-.37.06-.43.08-.58.08-.54,0-.31.06-.47.06-.4.05-.45.07-.55.07-.53.06-.51.08-.7.06-.59,0-.42.06-.58,0-.42,0-.52.07-.69,0-.53.07-.73v-.24l0-.3,0-.4,0-.37v-.25l0-.21,0-.29v-.22l0-.23V177l0-.2v-1.21l0-.26v-1.6l0-.26V158.75l0-.32v-.27l0-.24v-.49l0-.26v-.65l0-.5,0-.4,0-.36,0-.42,0-.31,0-.31,0-.41,0-.38-.06-.64,0-.42-.05-.5,0-.36,0-.4V151Z"/><polygon class="cls-2" points="478.79 130.89 534 130.97 524.11 179.13 505.79 275.52 493.17 338.18 439.41 338.13 478.79 130.89"/><path class="cls-2" d="M525.45,171h1.9l12.65.08,6.88-.09,3.42.05,2.62.1,1,.06.89.06.86.07.92.09.92.1.65.08,1,.13.71.11.48.07.49.09.49.09.42.08.36.07.48.1.61.14.28.07.34.09.45.12.5.15.48.14.53.18.49.18.65.25.45.19.33.14.46.22.46.24.26.14.23.13.4.24.35.22.48.33.39.29.53.42.39.35.31.29.19.2.23.23.23.27.22.25.24.31.49.67.21.32.2.31.15.27.19.33.16.32.16.32.19.42.16.36.15.38.14.4.14.41.15.49.11.36.11.43.11.43.09.41.09.44.09.46.06.37.09.56.08.6.06.62.06.64,0,.3v2l0,.25v.5l0,.3,0,.37,0,.27,0,.29,0,.24,0,.36,0,.25,0,.36,0,.26,0,.17,0,.19-.07.37-.05.27,0,.17,0,.15,0,.11,0,.1,0,.11,0,.09,0,.14-.05.16,0,.1,0,.07,0,.07v.07l0,.06,0,.07v.06l0,.08,0,.08,0,.07,0,.07v.05l0,.07,0,.07,0,.06,0,.06,0,.08,0,.09,0,.08,0,.08,0,.09,0,.11,0,.08,0,.08,0,.07,0,0,0,.1,0,.09,0,.09,0,.09,0,.1,0,.06,0,0,0,.06,0,.06,0,.06,0,.09,0,.08,0,.07,0,.08,0,.08,0,.08,0,.06,0,.06,0,.08,0,.06,0,.07,0,0,0,.07,0,.08,0,.12,0,.09,0,.06,0,.06,0,.09,0,0,0,.06,0,.05,0,.1,0,.09-.05.1,0,.09-.07.13,0,.09,0,.07,0,.05,0,.09,0,.06,0,.06,0,.08,0,.09,0,.07,0,.07,0,.07,0,.1-.05.08-.07.13-.05.08,0,.07,0,.07-.05.09,0,.06,0,.06h0l0,0,0,.06,0,.06,0,.07-.06.09,0,.06,0,.05,0,.06,0,.06,0,.06,0,.05,0,.06,0,.07,0,.07,0,.05,0,.06,0,.06,0,.07-.06.08-.06.08,0,.07-.07.08-.09.13-.06.08-.06.07,0,.07-.06.07,0,.07-.05.06,0,0,0,0-.09.11-.08.1-.07.08,0,0-.06.08,0,.05,0,0,0,.05,0,0-.05.06,0,0,0,0,0,.05,0,0,0,.05-.06.07-.12.12-.1.1-.08.08-.09.1-.08.08-.09.08-.12.12-.11.1-.07.07-.08.07-.08.08-.08.07-.06.05-.07.06,0,0-.06.05-.08.07-.06.05-.09.07-.07.06,0,0-.06.05-.07,0-.08.06,0,0-.09.07-.1.08-.12.09,0,0-.08.05-.06,0-.07.05,0,0-.1.07-.08.06-.06,0L568,208l-.07,0-.08.06-.08,0-.09.06-.09.06-.08,0-.09.06-.1.06-.09.06-.07,0-.13.08-.08,0-.11.06-.07,0-.07.05-.07,0-.1.06-.14.07-.1.06-.13.06-.11.06-.18.09-.12.06-.13.06-.18.08-.12.06-.14.06-.18.09-.15.06-.1,0-.19.08-.12.05-.15.07-.17.07-.15.06-.14.06-.13,0-.11,0-.09,0-.1,0-.1,0-.11,0-.11,0-.1,0-.15.05-.15.05-.12,0-.1,0-.12,0-.09,0-.13,0-.11,0-.07,0-.09,0-.12,0-.13,0-.12,0-.11,0-.11,0-.13,0-.15,0-.17,0-.17.05-.11,0-.11,0-.1,0-.15,0-.09,0-.11,0-.1,0h-.06l-.11,0-.07,0-.07,0h-.07l-.07,0-.06,0-.08,0h-.11l-.06,0-.09,0H559l-.07,0-.08,0-.09,0-.09,0h-.11l-.07,0h-.16l-.08,0-.08,0-.1,0H558l-.06,0h-.14l-.09,0h-.07l-.12,0-.14,0-.25,0-.18,0-.19,0-.2,0-.23,0-.18,0-.18,0-.17,0-.17,0-.15,0-.18,0-.19,0-.16,0h-.13l-.15,0-.2,0-.18,0-.22,0-.17,0-.15,0-.16,0h-.16l-.14,0h-.14l-.13,0h-.2l-.15,0h-.32l-.17,0H552l-.31,0h-.3l-.28,0-.33,0h-.87l-.39,0H519.07l-.08,0-.06,0-.06,0h0l-.05,0-.06,0-.05,0-.08,0-.05,0,0,0-.06-.05-.07,0,0,0-.06-.06,0-.05,0,0,0-.07,0-.08,0-.08,0-.07,0-.05v0l0-.06v-.07l0-.1v-.8l-.19-.07-.2.06-.24.54-.21,1-.08.95-.18,1.09-.21.9-.12,1-.13,1-.15,1-.16.84-.18.76-1.26,4.36-1,5.27-.68,5-1.26,5.23-.79,4.59-1.43,7.45-.26,2.47-.19,1.16.14.24,0-.12,0-.06,0-.11,0-.14,0-.12.06-.15.08-.19.07-.15,0-.07,0-.06.05-.07.05-.09.08-.13.11-.15L510,254l0,0,.06-.07.06-.06.11-.11.08-.07.07-.05.05,0,.07-.06.11-.06.07-.05.07,0,.07,0,.08,0,.06,0,.06,0,.05,0,.06,0,.1,0,0,0,.11,0,.1,0,.14,0,.11,0,.12,0H512l.1,0,.13,0,.19,0,.19,0h1.12l1,0,.7,0h3.26l1,0h25.88l.38,0h.76l.17,0H547l.13,0h.17l.21,0,.21,0,.16,0,.13,0,.11,0,.2,0,.11,0h.09l.1,0,.12,0,.15,0,.11,0,.2,0,.17,0,.18,0,.18,0,.15,0,.14,0,.17,0,.29.08.28.08.21.06.13,0,.17.06.26.08.22.08.21.07.18.07.2.08.15.06.2.08.24.1.28.12.22.11.19.09.27.13.14.07.14.07.1,0,.13.07.08,0,.1.06.14.07.09.06.1.06.07,0,.08,0,.08.05.08.05.07,0,.07,0,.05,0,0,0,.05,0,0,0,.06,0,.11.07.05,0,.1.06.1.07.18.13.11.07.14.1.14.11.11.08.12.08.1.09.08.05.1.08.09.07.09.08.07.06.08.06.08.06.08.07.09.08.06.05.08.07,0,.05.08.06,0,0,.08.07.06.06.05,0,0,.05.06.05,0,0,.08.08.08.08.07.07.08.08.06.05.06.06.06.07.08.08.08.09.05.05.06.06.05.06,0,0,0,0,.05.06,0,.06.06.06.06.07.07.07,0,.05,0,.06.06.07,0,0,.06.06.06.08,0,.07.08.1.06.07.06.07.08.11.08.1.06.07,0,.07,0,.07.06.08.06.08.07.1.06.09.09.12.06.09.06.09.1.14.11.17.09.15.09.14.08.12.12.21,0,.09.1.17.11.2.12.21.07.14.07.15.09.17.1.21.08.16.07.15.06.12,0,.1,0,.09.11.26,0,.12,0,.07,0,.12,0,.08,0,.11,0,.05,0,.1,0,.06,0,.07.05.12,0,.15.07.21.06.18,0,.13.05.15,0,.13,0,.14,0,.12.07.25,0,.09,0,.14,0,.12,0,.07.05.19,0,.16,0,.15,0,.11,0,.18,0,.23,0,.21,0,.21,0,.11,0,.13,0,.18,0,.18,0,.15,0,.15,0,.13,0,.18,0,.15,0,.18,0,.18,0,.19,0,.15v.21l0,.16v2.73l0,.72,0,.67,0,.6-.06.53,0,.38-.05.4-.06.41-.07.44-.09.52-.08.4-.1.5-.08.39-.11.46-.11.42-.11.39-.12.43-.14.43-.19.58-.15.42-.15.4-.2.49-.18.45-.28.6-.22.47-.19.37-.19.35-.24.44-.28.47-.21.33-.25.39-.19.28-.19.26-.21.3-.27.35-.26.34-.19.23-.3.35-.32.35-.34.38-.33.33-.41.4-.26.24-.38.34-.42.36-.36.29-.5.38-.39.29-.56.38-.47.3L553,294l-.57.33-.61.32-.72.35-.66.31-.47.2-.64.26-.56.21-.75.26-.75.24-.73.21-.78.21-.91.21-.67.14-.64.13-.63.11-1,.14-.62.08-.75.09-1.06.09-.74.05-.69,0-.56,0-.83,0-.75,0h-.57l-.68,0H518.2l-2.72,0h-7.72l-1.68,0-1.08.05h-1.27l-.27,0-.19,0-.15,0-.22-.05-.2-.06-.1,0-.16-.07-.11-.07-.11-.07-.13-.11-.13-.14-.07-.1-.08-.14-.08-.18,0-.13-.05-.23,0-.26v-.78l0-.17,0-.17.05-.33,0-.11-.38-.13-.34,1-.06.86-.16,1.15-.25.78-.67,2-.62,3.2-1.36,6-.35,2.76-.68,3.64-.76,3.79-5.3,16.2v2l.65.18h49.86l3.28,0h1.84l1,0,.58,0h.78l.65,0,.5,0,.5,0,.41,0,.37,0h.19l.31,0,.54,0,.71-.06.66-.05.65-.06.64-.06.27,0,.35,0,.36,0,.3,0,.4-.05.33,0,.39-.05.31,0,.28,0,.6-.09.55-.08.43-.07.38-.06.44-.07.59-.1.31,0,.39-.07.49-.1.31-.05.41-.09.25,0,.38-.08.39-.08.72-.16.58-.13.32-.07.37-.09.55-.12.71-.18.49-.12.4-.11.6-.16.62-.17.69-.19.51-.15.3-.09.33-.1.27-.08.65-.2.4-.13.21-.06.22-.07.19-.06.21-.07.25-.09.29-.1.28-.09.3-.1.36-.13.32-.11.34-.12.34-.13.41-.15.46-.17.63-.24.39-.15.33-.14.41-.16.41-.17.39-.16.43-.18.33-.14.47-.2.48-.21.53-.24.46-.21.4-.19.35-.17.6-.28.55-.28.41-.2.48-.24.41-.21.33-.17.36-.2.3-.16.25-.13.34-.19.3-.16.38-.22.32-.18.39-.23.45-.26.36-.21.46-.27.47-.3.46-.28.22-.14.53-.34.41-.27.28-.18.29-.19.34-.23.28-.2.39-.26.32-.23.37-.26.19-.14.45-.32.49-.36.33-.26.4-.3.25-.19.55-.44.41-.32.64-.52.25-.21.28-.24.24-.21.27-.23.26-.22.33-.29.28-.26.33-.29.4-.37.23-.21.31-.3.26-.25.23-.22.32-.31.25-.25.37-.38.35-.35.51-.53.43-.47.31-.33.46-.51.41-.47.32-.36.3-.36.18-.22.24-.29.23-.28.26-.32.3-.37.21-.27.39-.51.46-.61.34-.47.35-.49.25-.35.28-.41.24-.35.19-.28.17-.26.29-.45.17-.27.26-.41.25-.41.27-.43.28-.47.17-.31.24-.4.21-.39.2-.36.21-.38.16-.3.15-.29.17-.34.13-.24.12-.24.14-.29.11-.22.12-.24.14-.29.11-.23.11-.24.09-.2.08-.17.06-.12.12-.26.08-.19.08-.2.08-.18.14-.32.09-.22.12-.28.14-.34.18-.43.13-.33.18-.45.13-.35.13-.35.11-.31.15-.41.12-.34.1-.29.1-.31.15-.43.11-.34.14-.44.14-.46.12-.39.09-.33.12-.43.13-.43.13-.49.08-.33.09-.33.09-.36L617,289l.07-.32.12-.5.08-.35.08-.38.09-.44.07-.35.08-.4.06-.29.06-.35.1-.55.08-.46.1-.64.09-.56.07-.52.07-.49.08-.65.1-.84.06-.55.06-.69,0-.61,0-.59,0-.35,0-.78v-.61l0-.78v-1.9l0-.57,0-.56,0-.78,0-.47,0-.27,0-.51,0-.38,0-.31-.05-.45-.06-.56-.06-.45-.06-.41-.07-.48-.14-.84-.11-.63-.09-.5-.12-.6-.1-.44-.08-.36-.11-.47-.08-.34-.1-.41-.14-.53-.16-.59-.16-.57-.12-.39-.12-.38-.1-.33-.12-.34-.12-.37-.13-.36-.11-.31-.1-.29-.13-.35-.17-.43-.14-.38-.15-.35-.15-.36-.15-.35-.17-.4-.14-.3-.13-.29-.1-.21-.12-.25-.11-.23-.13-.26-.11-.24-.09-.16-.13-.26-.15-.29-.17-.32-.19-.35-.14-.26-.22-.38-.19-.33-.21-.34-.2-.33-.22-.35-.18-.29-.27-.42-.21-.32-.27-.38-.32-.46-.23-.33-.22-.29-.18-.24-.22-.29-.18-.23-.26-.33-.23-.28-.27-.32-.43-.51-.26-.3-.28-.32-.23-.24-.27-.3-.24-.25-.3-.31-.31-.31-.27-.27-.36-.33-.33-.33-1-.83-.76-.65-1.16-.91-2.05-1.44-1.54-1-1.32-.75-1.28-.66-1.59-.74-2.39-1L591.2,235l-1.3-.38-1.38-.3-1.22-.25-.94-.28-.59-.24-.79-.44-1-.82-.65-.78.68-.29.72-.32,1.1-.47,1-.32,1.07-.24.94-.22.76-.19,1-.25.82-.22,1-.28,1.18-.35,1.72-.55,1-.34,1.69-.61,1.36-.54,1.71-.71,1.14-.52,1.55-.74,1.19-.61,1.23-.67,1.2-.69,1-.62,1.29-.83,1.06-.73,1-.71,1.1-.84.84-.68.89-.75.84-.74.93-.86,1.36-1.36,1.33-1.45.82-.95,1.08-1.34,1-1.37.93-1.35.75-1.17.76-1.26.61-1.09.52-1,.58-1.15.86-1.86.34-.82.51-1.28.6-1.63.59-1.76.6-2.05.52-2,.47-2.12.36-1.85.26-1.58.24-1.75.16-1.5.14-1.79.09-2.25,0-2.34-.11-2.08-.13-1.62-.17-1.51-.23-1.58-.3-1.66-.4-1.84-.51-1.9-.37-1.2-.55-1.61-.49-1.29-.65-1.52-.7-1.46-.71-1.35-.65-1.15-.71-1.15L624.05,151l-1.3-1.7-1-1.23-1.24-1.35-1.06-1.06-1.09-1-1.11-1-1.24-1-1.54-1.12-1.42-.94-1.58-1-1.6-.92-2.1-1.09-1.16-.55-1.82-.81-2.12-.83-2-.7-2.14-.67-2.85-.77-2.57-.57-2.25-.42-1.92-.31-2-.26-2.18-.23-2.45-.2-2.88-.16-3.63-.09-5.5,0h-5.16L555,131l-5.83-.1-7.88.09H530.42l-4.17,6-7.67,24.21-3.66,19.33,4.37-.45,4.07-5.49L525,173.1l.08-.46.11-.34.15-.24.26-.32.25-.22.32-.2.39-.15.41-.1.29,0,.15-.14,0-.34s-.57-.22-.68-.24a8.44,8.44,0,0,0-1,.21Z"/></svg>