<svg xmlns="http://www.w3.org/2000/svg" viewBox="0 0 1661 484"><title>Mesa de trabajo b1</title><path d="M199.6,22.8l44,74.3,1.6,2.8c-6.6-2.7-12.8-4.8-19.4-5.2-19.9-1.3-37.1,5.2-51.4,18.7-19.9,19-29,43.3-32.4,70.1-.1.7,0,1.4-.1,2-3.5,13.8,2.8,22.2,14.4,28.8A166.1,166.1,0,0,0,231.2,236a119.7,119.7,0,0,0,22.4-.8c5.1-.6,8.3-3.4,10.3-8.2,10.5-24.3,14.1-49.5,11.6-76.1L385.8,338.1H200.1s-.2-.4-.1-.6c4.7-7.8,4.7-7.9-4.2-8.7a127.8,127.8,0,0,1-39-9.8c-1.8-.7-3.7-2.3-5.6-.5s-.6,3.8-.3,5.7c1.2,5.6,4.6,9.8,9,14H17.6Z" fill="#ed1d23"/><path d="M700.4,338.2H631.9c-3.9.1-5.3,0-4.3-5,5.8-28.8,11-57.7,16.5-86.5s11-57.3,16.5-86c1.6-8,3.1-16.2,4.4-24.3.6-3.9,1.9-5.6,6.5-5.5,24,.3,47.9.1,71.9.1h63c3.3-.1,5-.2,3.9,4.4a299.5,299.5,0,0,0-6,32.5c-.6,4.6-2.4,5.2-6.3,5.2-25.4-.2-50.7-.1-76-.1h-3c-3.5-.6-4.7.7-5.3,4.4-1.6,10.4-3.6,20.8-6.1,31.1-.9,3.7.6,3.5,3,3.5h44.5c10.4,0,20.7.1,31-.1,3.9-.1,4.2,1,3.5,4.6-2.5,10.9-4.6,21.9-6.4,33-.6,3.6-1.8,4.6-5.4,4.6-24.6-.2-49.3,0-74-.2-4.1-.1-5.2,1.6-5.8,5.1-2,11.2-3.8,22.4-6.3,33.5-1,4.1.2,4.4,3.5,4.3,27.2,0,54.4.1,81.5-.1,4.2,0,5.8.2,4.5,5.3-2.6,10.7-4.4,21.7-6.2,32.6-.5,3.3-2.3,3.7-5.1,3.6Z" fill="#fff"/><path d="M1399.9,131c25.5,0,51,.1,76.5-.1,4.1,0,6.1,0,4.8,5.4-2.8,11.7-4.8,23.6-6.8,35.4-.5,3.1-1.8,3.6-4.5,3.6-15.3-.2-30.6-.1-46-.1-2.8,0-4.5,0-5.2,3.9-5.3,29.6-11.1,59-16.8,88.5-4.3,22.5-8.7,45-12.9,67.5-.5,2.5-1.7,3.2-4.1,3.1h-49.4c-2.3,0-3.4.2-2.8-3.1,5.8-29.5,11.3-59,17-88.4,4.3-22.7,8.6-45.3,13.1-68,.6-3.2-.8-3.6-3.4-3.5-15.4,0-30.7-.1-46,.1-3.3,0-4.6-.1-3.6-4.2,2.7-12.1,5-24.3,6.9-36.5.6-3.5,2-3.6,4.7-3.6Z" fill="#fff"/><path d="M860.6,294h38.5c11.8,0,23.7.1,35.5-.1,2.8,0,3.7.6,3.1,3.7-2.4,11.8-4.6,23.6-6.7,35.4-.7,3.7-1.9,5.4-6.3,5.3-41.5-.2-83-.1-124.4-.1-3.1,0-4.6.1-3.8-4.2,7.7-39.1,15.1-78.3,22.6-117.5,5.3-27.7,10.7-55.3,15.9-83,.4-2.3,1.7-2.5,3.5-2.5,16.7,0,33.3.1,50-.1,3.5,0,2.7,2.2,2.4,3.9-2.1,11-4.3,22-6.4,33q-7.2,38.3-14.6,76.3c-2.7,14.6-5.6,29.1-8.4,43.7C861.2,289.7,860.9,291.7,860.6,294Z" fill="#fff"/><path d="M1039.6,131c-5.9,31.4-11.8,62.5-17.7,93.6-4.1,21.5-8.2,43-12.6,64.5-.8,4.1.1,5,4.2,5,22.6-.2,45.3,0,68-.2,3.9,0,5,.6,4,5-2.6,11.4-4.5,23-6.5,34.5-.6,3.5-1.7,4.9-5.6,4.9-41.5-.2-83-.1-124.5-.1-3.4.1-5.1.2-4.1-4.6,6.9-34.2,13.4-68.6,19.9-102.9,5.6-28.8,10.9-57.6,16.4-86.5v-.5c1.7-3.9.1-9.9,3.4-12s8.3-.7,12.7-.7Z" fill="#fff"/><path d="M1092,397c-1.9,0-3.7-.1-5.5,0-6.9.3-8.7,2.5-9.5,9.4-1.5,12.2-3.3,24.5-5.1,36.8-.5,3.7-3.7,1.6-5.6,1.9s-2.5-1.3-2.3-3.1c1-7.5,2-15,3.1-22.6s2.4-17,3.8-25.4c.4-2.9,6.7-4.9,7.6-2.5s2.4,1.3,3.7.8c7-3.1,14.2-4.2,21.8-2.3.9.3,2.2.5,2.6,1.1,3.4,5.2,6.8,2.5,10.7.7a29.8,29.8,0,0,1,20.8-1.7,9.6,9.6,0,0,1,6.8,10.4c-1.9,14.2-3.9,28.4-6,42.7-.5,3.6-3.7,1.5-5.6,1.9s-2.6-.7-2.4-2.6c1.3-8.8,2.4-17.7,3.6-26.5.7-4.7,1.5-9.5,2-14.2.2-2.3-.8-4.7-3.3-4.7-6.1,0-12.4-1.2-18.3,1-2.1.8-3.6,1.8-4,4.5-1.5,12.6-3.3,25.3-5,37.9-.5,4.1-3.7,6-7.6,4.7-1.6-.6-1.2-1.7-1.1-2.8l5.7-38.2c.8-5.5-.7-7.2-6.4-7.3H1092Z" fill="#fff"/><path d="M1479.3,439.8c3.9.5,8.1-.9,12.5-.9,2.7-.1,4-1.4,4.4-4.6,1.7-13.6,4-27.1,5.7-40.7.6-4.5,3.5-2.4,5.5-2.8s2.8,1.5,2.6,3.4c-1.5,10.5-2.9,21-4.4,31.5l-2.4,15.6c-.6,3.4-5.3,5.9-7.2,3.5s-4-.8-5.9-.1a39.8,39.8,0,0,1-23.4,1.4c-6-1.3-8.3-4.7-7.6-10.9,1.3-10.3,2.9-20.6,4.3-30.9.5-3.3,1.5-6.5,1.4-9.8-.1-5.4,3.6-3.6,6.2-3.6s2,3.3,1.8,4.9c-1.4,11.9-3.2,23.9-4.9,35.9-.8,6,.5,7.7,6.5,8.1Z" fill="#fff"/><path d="M1006.7,439.8c3.8.6,7.8-.9,11.9-.9s4.2-1.1,4.6-4.5c1.6-13.6,4-27.1,5.7-40.7.5-4.5,3.4-2.5,5.4-2.9s3,1.8,2.7,3.8l-4.5,31.8-2.4,15.7c-.2,1.2.4,3-1.7,3s-5.2,1.2-5.9-.7-2.2-1.2-3.4-.7c-8.3,4.1-17,4.3-25.7,2.3-5.5-1.2-8-4.6-7.3-10.1,1.8-14.4,3.9-28.8,6-43.2.6-3.5,3.7-1.4,5.7-1.8s2.5.9,2.2,2.7c-1.1,8.5-2.2,17-3.4,25.5-.6,4.9-1.5,9.8-2.1,14.7-.4,2.6.8,4.4,3.4,5.3S1003.5,439.8,1006.7,439.8Z" fill="#fff"/><path d="M1429,432.8c5.9-12.1,12.2-24.1,17.7-36.5,2.3-5.2,5.2-6.5,10.6-4.9-3.4,7-6.9,13.9-10.3,20.8-8.5,16.7-17.1,33.3-25.3,50.1-2.2,4.6-4.9,7.1-10.5,5.2,3.2-6,6.2-12.3,9.6-18.3,1.8-3.1,1.8-6.1.9-9.4-3.9-14.8-7.9-29.6-11.5-44.5-.3-1.1-3.5-4,.7-4.4,2.7-.2,6.1-1.5,7.1,3.1,1.4,6.8,3.3,13.5,5,20.2s3.2,12.4,4.9,18.5Z" fill="#fff"/><path d="M946.3,397.6c-.3-4.6,2-6.4,6.5-5.6s4.5-.5,4.5-3.9,1.1-5.5,1.4-8.3c.5-4.8,4.2-3.8,7.1-3.7s1.2,2.1,1,3.2c-.3,3.3-1,6.5-1.6,9.7s.1,3.1,2.4,3c4.4-.1,8.7,0,13,0,1.5,0,3.6-.6,3.3,2.2s-.4,4-3.3,3.9-8.7,0-13-.1c-2.2,0-3.4.1-3.8,3.1-1.3,10.9-3.2,21.8-4.8,32.8-.6,4.4,1,6.6,5.8,6.2a75.3,75.3,0,0,1,9.5,0c1.2,0,2.9-.5,2.7,1.7s.3,2.9-1.8,3.5c-6.7,1.7-13.4,2.7-20,.1-3.6-1.4-4.8-4.5-4.4-8.1,1.2-9.5,2.4-19,3.7-28.5.4-3.2,2.1-7.1,1-9.6S949.3,399.1,946.3,397.6Z" fill="#fff"/><path d="M1228.8,390.6c-2.7,19.2-5.2,37.7-7.9,56.2-.4,3.1-1,6.1-1.7,9.2-2.7,12-14.1,14-23.1,12.6-1.7-.2-3.6-.7-3.1-3.4s1.6-3.4,4.1-3.2a17.8,17.8,0,0,0,4,0c7.3,0,9.9-2.5,10.9-9.9l8.1-57.9C1220.9,388.2,1225.4,391.8,1228.8,390.6Z" fill="#fff"/><path d="M1334.3,390.3c1.3,6.5-2.4,7.3-7.5,6.8a26.6,26.6,0,0,0-8.4.7c-9.6,2.1-9.4,2-10.5,11.2-1.3,11-3.2,21.9-4.5,32.9-.6,5.2-4.3,3.3-6.7,3.1s-1.3-2.9-1.1-4.6c2.1-15.2,4.3-30.4,6.4-45.6.2-1.6-.9-4.3,2.2-3.9s5.3-2.1,5.9,2.3c.3,2.7,1.9.7,2.7.3C1321.9,389.8,1324.8,389.3,1334.3,390.3Z" fill="#fff"/><path d="M1640.6,435c-.2,2.1-.6,3.9-.6,5.7.1,3.4-1.2,5.1-4.7,4.5-1.8-.3-4.5,1.1-5.2-1.2a11.8,11.8,0,0,1,1-8.2c.6-1.3,2-.7,3.1-.7Z" fill="#fff"/><path d="M1223,374.1c-.1-3.9.8-6.9,5.8-6.1,1.5.2,4.1-.2,2.9,2.3s1.6,9.1-6,8.1C1222.2,377.9,1222.8,376.2,1223,374.1Z" fill="#fff"/><path d="M202,317.9c-22.4-1.9-48.3-7.5-69.3-26.5-23.4-21.2-19.1-53.4-4.1-73.3,3.6-4.7,5.6-4.8,9.8-1.3,25.2,20.6,54.4,30.1,86.6,31.5,11,.5,21.9.2,32.7-2,4.2-.9,5.9,1.7,6.6,5.1,1.9,8.6,1.2,17.2-1,25.6C256.3,303.5,236.3,317.9,202,317.9Z" fill="#fefefe"/><polygon points="275.5 150.9 245.2 99.9 244.3 99.5 243.4 99.2 242 98.6 241.2 98.3 240.1 97.9 239 97.5 237.5 97 236.2 96.6 235.1 96.3 233.9 96 232.9 95.8 232.3 95.6 231.5 95.4 230.3 95.2 229.1 95 227.4 94.8 226.3 94.7 225.3 94.6 223.1 94.5 220.5 94.5 217.8 94.5 214.5 94.8 212.9 95 210.3 95.3 209.5 95.4 208.2 95.7 207.4 95.8 206.6 96 205.8 96.2 204.5 96.5 203.6 96.7 202.4 97 201.3 97.4 200.3 97.7 199.2 98 198.3 98.4 197.3 98.7 196.6 99 195.5 99.5 194.7 99.8 193.8 100.2 192.7 100.7 191.9 101.1 191.2 101.5 190 102 189.2 102.5 188.4 102.9 186.8 103.9 185.6 104.6 184.3 105.5 183.1 106.3 182.1 107 181.2 107.7 180.1 108.5 178.8 109.6 178.2 110.1 177.6 110.5 177.2 110.9 176.9 111.2 176.5 111.5 176.1 111.9 175.8 112.2 175.3 112.6 174.9 113 174.5 113.3 174.2 113.7 173.8 114.1 173.5 114.4 173.2 114.6 172.9 115 172.4 115.5 171.8 116 171.3 116.5 171 116.9 170.6 117.3 170.2 117.7 170 117.9 169.6 118.3 169.3 118.7 169.1 118.9 168.9 119.2 168.6 119.5 168.3 119.8 168 120.1 167.7 120.5 167.5 120.8 167.1 121.2 166.8 121.6 166.6 121.9 166.3 122.2 166 122.5 165.7 123 165.3 123.4 165.1 123.7 164.8 124.1 164.4 124.6 164.1 124.9 163.8 125.3 163.4 125.9 163.1 126.3 162.8 126.7 162.5 127.1 162.2 127.5 161.9 128 161.6 128.4 161.2 129 160.8 129.6 160.4 130.2 160.1 130.6 159.8 131 159.5 131.5 159.3 131.9 159 132.3 158.8 132.7 158.5 133.2 158.2 133.6 157.9 134.2 157.6 134.6 157.4 135 157.2 135.4 156.9 135.8 156.7 136.2 156.4 136.7 156.2 137.1 155.9 137.6 155.7 138 155.4 138.6 155.2 138.9 155.1 139.2 154.9 139.6 154.7 139.9 154.5 140.4 154.2 140.9 154.1 141.2 153.8 141.7 153.5 142.3 153.3 142.8 153 143.5 152.8 143.9 152.6 144.3 152.4 144.7 152.3 145 152.1 145.5 151.9 145.8 151.8 146.2 151.5 146.7 151.4 147.1 151.2 147.5 151 148.1 150.7 148.6 150.5 149.2 150.3 149.8 150.1 150.3 149.9 150.8 149.7 151.3 149.5 151.8 149.3 152.3 149.1 152.8 149 153.3 148.8 153.9 148.6 154.5 148.4 155.1 148.1 155.7 148 156.2 147.8 156.7 147.7 157.1 147.6 157.5 147.4 158.1 147.2 158.5 147.1 159 146.9 159.6 146.7 160.5 146.5 161.2 146.3 161.7 146.1 162.4 145.8 163.5 145.7 164 145.6 164.6 145.4 165.2 145.3 165.5 145.3 165.8 145.2 166.1 145.1 166.5 145 166.8 144.9 167.3 144.8 167.7 144.7 168.1 144.6 168.8 144.5 169.3 144.4 169.7 144.3 170.2 144.2 170.7 144 171.3 143.9 171.9 143.8 172.5 143.7 173.1 143.5 173.8 143.4 174.4 143.3 175.1 143.2 175.7 143.1 176.4 143 177 142.9 177.7 142.8 178.3 142.7 178.7 142.6 179.3 142.5 180 142.4 180.5 142.4 180.9 142.3 181.4 142.2 182 142.1 182.7 142 183.3 142 183.7 142 184.1 142 184.6 142 185 141.9 185.3 141.8 185.7 141.7 186.1 141.6 186.5 141.5 187 141.4 187.6 141.3 188.2 141.2 189 141.1 189.6 141 190.2 141 190.9 140.9 191.4 140.9 191.9 140.9 192.2 140.9 192.6 140.9 193.1 140.9 193.6 140.9 194.1 141 194.5 141 194.9 141.1 195.4 141.1 195.8 141.2 196.2 141.3 196.7 141.3 197.1 141.4 197.5 141.5 197.9 141.7 198.4 141.8 198.8 141.9 199.2 142.1 199.7 142.2 200.1 142.4 200.5 142.6 201 142.8 201.4 142.9 201.6 143 201.8 143.1 202 143.3 202.3 143.5 202.7 143.6 203 143.8 203.3 144 203.6 144.2 203.9 144.3 204.1 144.5 204.4 144.7 204.7 145 205 145.2 205.3 145.4 205.5 145.6 205.8 145.8 206 145.9 206.2 146.1 206.5 146.4 206.8 146.6 207 146.9 207.3 147.2 207.6 147.4 207.8 147.6 208 147.8 208.2 148 208.4 148.3 208.7 148.5 208.9 148.7 209 149 209.3 149.2 209.5 149.5 209.7 149.8 210 150.1 210.2 150.4 210.4 150.6 210.6 150.9 210.8 151.1 210.9 151.3 211.1 151.6 211.3 151.8 211.5 152.1 211.7 152.4 211.9 152.7 212.1 153 212.3 153.3 212.5 153.5 212.6 153.8 212.8 154.1 213 154.4 213.2 154.8 213.4 155.1 213.6 155.4 213.8 155.7 213.9 155.9 214.1 156.2 214.3 156.5 214.4 156.8 214.6 157.2 214.8 157.5 215 157.8 215.2 158.2 215.3 158.5 215.5 158.8 215.7 159.1 215.8 159.4 216 159.9 216.3 160.2 216.4 160.6 216.7 161 216.9 161.5 217.1 161.9 217.3 162.4 217.6 162.7 217.8 163.3 218.1 163.8 218.3 164.3 218.6 164.7 218.8 165.1 219 165.5 219.2 165.8 219.3 166.2 219.5 166.6 219.7 166.9 219.9 167.4 220.1 167.8 220.2 168.3 220.5 168.8 220.7 169.4 221 169.8 221.2 170.1 221.3 170.4 221.4 170.7 221.6 171.1 221.8 171.4 221.9 171.8 222.1 172 222.2 172.5 222.4 172.9 222.6 173.3 222.7 173.7 222.9 174.1 223.1 174.4 223.2 174.8 223.4 175.3 223.6 175.7 223.7 176.2 223.9 176.6 224.1 177 224.3 177.5 224.5 177.7 224.6 178.1 224.7 178.4 224.8 178.8 225 179.2 225.1 179.4 225.2 179.8 225.3 180.1 225.5 180.4 225.6 180.8 225.7 181 225.8 181.2 225.9 181.5 226 181.8 226.1 182.1 226.2 182.4 226.3 182.7 226.4 183 226.5 183.3 226.7 183.7 226.8 184 226.9 184.2 227 184.5 227.1 184.7 227.1 185 227.2 185.2 227.3 185.4 227.4 185.6 227.5 185.9 227.6 186.2 227.6 186.5 227.7 186.8 227.8 187.2 228 187.7 228.1 188 228.2 188.4 228.4 188.8 228.5 189.1 228.6 189.4 228.7 189.8 228.8 190.1 228.9 190.4 229 190.8 229.1 191.1 229.2 191.6 229.4 192 229.5 192.5 229.6 193 229.7 193.3 229.8 193.7 229.9 194.3 230.1 194.8 230.3 195.5 230.4 196.1 230.6 196.8 230.8 197.3 230.9 197.7 231 198.1 231.1 198.6 231.2 199.3 231.4 200.1 231.6 200.7 231.8 201.2 231.9 201.8 232 202.1 232.1 202.4 232.1 202.6 232.2 203.1 232.3 203.5 232.4 204 232.5 204.5 232.6 205.1 232.7 205.7 232.8 206.5 233 206.9 233.1 207.3 233.2 207.7 233.2 208.3 233.3 208.7 233.4 209.3 233.5 209.7 233.6 210 233.7 210.6 233.8 211.1 233.8 211.7 233.9 212.2 234 212.7 234.1 213.3 234.2 213.7 234.3 214.2 234.3 214.9 234.4 215.4 234.5 215.8 234.6 216.5 234.7 217.2 234.8 218.1 234.9 218.9 235 219.5 235 220 235.1 220.9 235.2 221.4 235.3 222.5 235.4 223.7 235.5 224.6 235.6 225.4 235.6 226 235.7 226.5 235.7 227.3 235.8 228 235.8 229.1 235.9 229.5 235.9 230.2 236 231.3 236 231.8 236 232.7 236.1 233.7 236.1 234.4 236.1 235.5 236.2 236.7 236.2 237.5 236.2 238.6 236.2 239.4 236.2 240.7 236.2 241.4 236.2 242 236.2 242.9 236.1 243.4 236.1 244.3 236.1 244.7 236.1 245.3 236 245.7 236 246.2 236 246.8 235.9 247.5 235.9 248.1 235.8 248.6 235.8 249.2 235.7 249.8 235.7 250.3 235.6 250.8 235.6 251.5 235.5 252 235.5 252.4 235.4 253 235.3 253.6 235.2 254.3 235.1 254.9 235 255.4 234.9 256.1 234.7 256.6 234.5 257.3 234.3 257.8 234 258.5 233.7 259 233.3 259.5 233 260 232.6 260.4 232.2 260.8 231.8 261.5 231.2 261.9 230.6 262.2 230.2 262.5 229.7 263.2 228.6 263.7 227.6 264.2 226.4 264.7 225.2 265.1 224.3 265.5 223.3 265.7 222.9 265.9 222.4 266 221.9 266.3 221.3 266.5 220.9 266.7 220.3 266.9 219.8 267 219.5 267.2 219 267.3 218.5 267.6 217.8 267.9 216.9 268.2 215.9 268.6 214.9 268.8 214.1 269.1 213.4 269.3 212.7 269.5 211.9 269.7 211.3 270 210.5 270.2 209.7 270.4 209 270.6 208.5 270.7 208.1 270.8 207.5 271 207 271.2 206.1 271.4 205.4 271.5 204.9 271.7 204.3 271.8 203.7 272 203.1 272.1 202.7 272.2 202.3 272.3 201.7 272.4 201.4 272.5 201.1 272.6 200.6 272.7 200.1 272.8 199.6 272.9 199.2 273 198.6 273.1 198.3 273.1 198 273.2 197.6 273.3 197.3 273.4 196.9 273.5 196.2 273.6 195.8 273.7 195.2 273.8 194.7 273.9 194.1 273.9 193.8 274 193.2 274.1 192.7 274.2 192.2 274.3 191.7 274.4 191.3 274.5 190.6 274.6 190 274.6 189.7 274.7 189.2 274.8 188.7 274.8 188.1 274.9 187.8 274.9 187.3 275 186.9 275 186.5 275.1 185.9 275.2 185.4 275.2 184.9 275.3 184.2 275.4 183.6 275.4 183.2 275.5 182.6 275.5 182.2 275.6 181.7 275.6 181 275.7 180.4 275.7 179.7 275.8 179.5 275.8 179.2 275.8 178.8 275.8 178.4 275.9 178.2 275.9 178 275.9 177.7 275.9 177.4 275.9 177.2 275.9 177 276 176.6 276 176.2 276 176 276 175.8 276 175.6 276 175.3 276.1 175.1 276.1 174.9 276.1 174.7 276.1 174.4 276.1 174.2 276.1 174 276.1 173.7 276.1 173.5 276.1 173.3 276.1 172.9 276.2 172.5 276.2 172.2 276.2 172 276.2 171.7 276.2 171.5 276.2 171.3 276.2 171.1 276.2 170.8 276.2 170.6 276.2 170.3 276.2 170.1 276.2 169.8 276.2 169.5 276.2 169.3 276.2 169 276.2 168.8 276.2 168.6 276.3 168.4 276.3 168.2 276.3 167.9 276.3 167.7 276.3 167.5 276.3 167.2 276.3 166.9 276.3 166.6 276.3 166.3 276.3 166.1 276.3 165.9 276.3 165.4 276.2 165.2 276.2 164.9 276.2 164.7 276.2 164.2 276.2 163.7 276.2 163.3 276.2 162.9 276.2 162.4 276.2 162.2 276.2 161.9 276.2 161.7 276.2 161.5 276.2 161.1 276.1 160.9 276.1 160.6 276.1 160.3 276.1 160.1 276.1 159.9 276.1 159.7 276.1 159.4 276.1 159.1 276.1 158.7 276 158.4 276 158.2 276 157.9 276 157.7 276 157.4 276 157.2 275.9 156.8 275.9 156.5 275.9 156 275.9 155.6 275.9 155.3 275.8 154.8 275.8 154.5 275.8 154.2 275.7 153.8 275.7 153.4 275.7 152.8 275.6 152.4 275.6 151.9 275.6 151.5 275.5 151.1 275.5 150.9" fill="#fff"/><polygon points="478.8 130.9 534 131 524.1 179.1 505.8 275.5 493.2 338.2 439.4 338.1 478.8 130.9" fill="#ed1d23"/><path d="M1212.4,169.1l1.8.2h2.4l1.3.2,2,.3,1,.2,1.2.3.8.3,1,.3,1.1.4,1.1.5,1.2.6.9.4,1.7,1.1,1.1.8,1,.8,1.3,1.1.7.7.9,1,1,1.2,1.1,1.4.9,1.4.7,1.1.7,1.3.6,1.2.5,1.1.3.8.3.9.4,1,.3,1.1.3,1,.3.9.3,1.3.2,1.1v1l.2,1.4.2,1.4.2,1.4.2,1.4V203l.2,2v20.9l-.2,1.2v1.4l-.2,1.5-.3,1.6-.2,1.6-.3,1.6-.3,1.7-.3,1.8-.2,1.4-.3,1.5-.4,1.4-.3,1.6-.4,1.8-.5,1.8-.3,1.3-.6,1.9-.4,1.5-.4,1.2-.6,1.7-.7,2-.6,1.8-.4,1-.5,1.3-.4,1-.4.8-.4.9-1,2.2-.5,1.1-1.8,3.5-1.6,2.8-1.5,2.5-1.7,2.5-1.3,2-1.3,1.7-1.7,2.2-1,1.2-.8.8-.9.9-.9,1-.9.9-1,.9-1.8,1.5-1.3.9-1.2.9-.8.6-1.3.8-1.6.9-.9.5-1,.5-1,.4-.8.4-1.5.6-1.2.4-1.3.5-1.3.4-1.4.3-1.9.4-1.8.4-2.3.3H1189l-1.9.2h-4.9l-2.8-.2-3.5-.4-4.1-1.1-2.9-1.2-2-1-2.4-1.6-2.2-1.8-1.9-1.9-2-2.6-1.4-2.2-1.2-2.3-.9-2.3-.7-2.4-.6-2.8-.4-2.4-.3-3.6-.3-3.8-.2-3-.2-3.6V248.9l.3-3.9.3-3,.3-3,.5-3.1.6-3.6.8-4,1-3.8,1.3-4.7,1.4-4.2,1.6-4.3,1.7-3.8,3-6.2,2.5-4.4,2.1-3.3,2.8-4,2.5-3.4,1.7-2,2.4-2.6,2-1.9,3.2-2.6,2.3-1.5,2.1-1.3,1.9-1,1.9-.8,2.4-1,1.9-.6,2.5-.7,2.6-.5,2.7-.4,2.2-.2h4.2l.9-43h-6.4l-1.9.2h-2.7l-1.6.2h-1l-6.9,1-4.3.8-5.3,1.3-4.8,1.3-1.9.6-3.4,1.2-4.5,1.8-4.3,1.9-4.7,2.3-4,2.3-4,2.5-3.1,2.1-2.8,2-2.6,2.1-3.6,3.1-2.2,2-2.4,2.4-3,3.2-3.8,4.3-3,3.8-2.6,3.5-3.4,4.8-2.6,4.1-2.4,4-3.8,7-2.6,5.4-1.5,3.4-1.9,4.9-1.7,4.6-1.4,4.3-1,3.3-.9,3.4-1,3.9-.6,3.3-.9,4.7-1,6.5-.6,6.3-.2,2.3V251l-.2,3.7v8.2l.2,3,.2,4.1.3,3.7.5,4.5.6,3.7.9,4.2.6,2.4.8,2.8.9,2.6,1.4,3.6,1.4,3.2,1.5,2.9,1.3,2.3,1.2,1.9,1,1.6,1.4,1.9,1.4,1.8,2.5,2.9,2.3,2.6,2.4,2.3,3.4,2.9,2.8,2.2,2,1.4,3.4,2.3,3.7,2.1,2.7,1.5,2.4,1.1,4.7,2,3.8,1.4,4.4,1.4,2.8.7,3.4.9,4.9.9,4.4.6,4.2.4,5.7.4h20.9l1.5-.2,1.9-.2,1.8-.2,2.3-.4,2.8-.4,1.9-.4,2.3-.5,2.2-.4,2.4-.6,2.2-.6,1.9-.5,1.5-.5,1.5-.4,2.1-.7,1.6-.6,1.8-.6,1.8-.7,1.3-.5,1.7-.7,1.3-.6,2-.9,1.9-.9,1.7-.9,1.3-.7,1.1-.6,1.2-.7,1.1-.6,2.1-1.2,1.5-1,1.8-1.2,1.5-1,1.5-1.1,1.9-1.4,1.8-1.4,1.1-.9,1.1-.9,1.2-1.1,1.5-1.3,1.3-1.2,1.5-1.5,1.1-1.1,1.2-1.2,1.6-1.7,1.1-1.2,1-1.2,1-1.1.8-.9,1-1.3.7-.9,1.2-1.5.8-1.1.7-1,1.2-1.6,1.1-1.7.9-1.2.7-1.2.8-1.2.7-1.1.8-1.2,1.3-2.1.9-1.5.7-1.3.6-1,.8-1.4.5-.9,1-1.9.8-1.5.8-1.8.9-1.7.8-1.9.8-1.7.9-2.3.9-2.1.8-2.1.7-2,.6-1.7.9-2.8.8-2.7,1.1-3.8.7-3,.5-2,.3-1.7.6-3,.5-2.9.4-2.6.3-2.2.2-2.5.4-3.9.2-4.2V208.7l-.2-1.8V205l-.3-3-.3-3.2-.3-2.1-.3-1.9-.2-1.7-.4-2.4-.4-2.2-.5-2.5-.5-1.9-.4-1.9-.5-1.9-1-3.2-.9-2.4-.7-2-.7-1.8-.8-1.8-1.1-2.2-.9-1.8-1.2-2.1-1-1.5-.9-1.5-.9-1.3-.8-1.1-.9-1.3-1.1-1.4-.9-1-1-1.2-1.1-1.2-1.9-1.9-1.9-1.8-1.2-1.1-1.5-1.3-1.5-1.2-1.1-.8-2.6-1.8-2-1.4-2.8-1.6-2.2-1.2-2-1.1-2.8-1.3-3.9-1.6-3-1.1-2.9-1-3.3-1-2.8-.8-3.4-.8-4.2-.8-5.2-.8-1.6-.2-2-.2-1.9-.2h-13.1l-1.1,23.7-.3,17.2-1.1,2Z" fill="#fff"/><path d="M524.7,176l.5-2.3s.2-1.1.3-1.4.1-.6.4-.8l.8-.4h23.9l3,.2h2.1l2.5.3,1.6.2,2.3.4,2.2.6,1.9.6,2.4,1,2.1,1.4,1.4,1.3.9,1,1.1,1.7.8,1.6.6,1.7.5,2.1.4,2v5.2l-.3,2.5-.6,2.2-.7,2.2-.9,1.9-.9,1.6-1.4,1.9-1.4,1.5-1.7,1.4-1.2.9-1.8.9-2.1.9-2.4.8-2.8.7-3.3.6-5.3.4H519.1l-.9-.5a1.6,1.6,0,0,1-.2-1v-.5l-2,5.5-6.8,32.1-.2,7.2v2.5s.4-2.5.6-3.4l.4-.9.7-.5a2.4,2.4,0,0,1,.9-.3l1.7-.2h33.9l1.7.3,1.7.4,1.4.4,1.7.8,1.4.8,1.6,1.1,1.6,1.4,1.7,1.8,1.1,1.7,1.3,2.4.7,2.1.6,2.4.2,2.1v4.7l-.3,1.9-.4,2.3-.6,2-.7,1.9-.8,1.8-1.1,1.9-1.2,1.7-1.2,1.3-1.8,1.6-1.2,1L553,294l-1.9,1-1.8.7-1.3.5-2.2.7-2.9.6-2.3.3-2.5.2H503.3l-1.1-.4c-.3-.4-.6-.5-.6-1.3s.4-2.3.4-2.3l-1.9,1.2-1,3.7-7.6,39.2h51.8l6.2-.2,5.7-.4,4.7-.7,4-.7,5.3-1.3,4.8-1.5,5.5-2.1,5.1-2.4,3.8-2.1,3.8-2.4,4.1-2.9,3.3-2.8,3.6-3.7,2.2-2.5,3.1-4.1,2.3-3.6,1.8-3.5,1.9-4.2,1.4-4L617,289l.9-4.4.7-6.1v-3.9l-.5-6.2-1-5.1-1.2-4.2-1.7-3.9-1.8-3.5-1.7-2.5-2.5-3.1-3.5-3.5-4-3-4.6-2.6-2.7-1.2-2.3-.8-1.6-.4-2.2-.6a19.2,19.2,0,0,1-2.5-1.1,5.1,5.1,0,0,1-1.5-1.4,10.3,10.3,0,0,1,2-.8l2.5-.8,3.6-.9,3.3-1,3.2-1.1,3.6-1.5,4.6-2.3,3.5-2.2,3.1-2.2,3.5-3.1,2.7-2.8,1.9-2.3,2.7-3.9,2.5-4.5,2-4.6,2.2-7.4.7-3.9.7-5.4.2-5.3-.4-5.2-1-5.1-1.4-4.7-2.2-5-2.8-4.5-3-3.7-3.3-3.2-4.8-3.5-4.3-2.5-3.9-1.8-5.6-2-6.7-1.7-5.5-.8-7.5-.6-9.7-.2h-90c-.7,0-1.1.3-1.2.8l-.9,5.1-1.1,5.8-15.9,83.7-3.8,19.8-4.5,23.4-4.2,22.4-4.1,21.6L441,329.6l-1.3,7.2c-.2,1,.2,1.3.5,1.3l3.9.2h50.2l6.3-32.9v-6.8l.5-3.2.8-.3.6-3.2,3.2-15.7,3.3-17.6.4-2.1.4-5.5,1.4-4.2,6.4-33.9.5-1.9.5-2.9,3.2-16.9,2.8-14.4Z" fill="#fff"/><path d="M159.9,338.2h40.2v-.8l.3-.4.5-.8.2-.4.4-.7.5-1,.5-.9.3-.6.2-.5v-1.5l-.2-.4-.4-.2-.5-.2-.4-.2h-.6l-.9-.2h-1l-1.6-.2h-2l-2-.2-1.2-.2h-1.5l-1.2-.2h-1.7l-1.2-.2-.9-.2h-1l-.8-.2-.9-.2-1.6-.3-1.8-.4-1-.2-1.2-.3-.8-.2-1-.2-1.4-.4-.9-.2-.7-.2-.8-.3-1.6-.4-.9-.3-1.7-.6-1.7-.5-1.2-.4-.9-.4-1-.3-1.1-.4-.7-.3-.9-.3-.7-.3-1-.4-.7-.3-.9-.4-.7-.3-.8-.4-.6-.2-.7-.3h-1.1a1.9,1.9,0,0,0-1,.3,3.6,3.6,0,0,0-1.1,1,2.1,2.1,0,0,0-.4,1.1,3.4,3.4,0,0,0-.1.9,8.8,8.8,0,0,0,.2,1.4l.3,1.3.3,1.1.3,1.3.3.9.3.8.6,1.1.5,1,.4.7.6.9.5.7.9,1.2.6.8.7.8,1.2,1.3.9.9.5.5Z" fill="#fefefe"/><path d="M1525,252.2l-.5,1.3a2.3,2.3,0,0,0,0,1.5,1.7,1.7,0,0,0,.8.6,8.2,8.2,0,0,0,1.8.3h41.7l2.1-.2a2.1,2.1,0,0,0,.9-.6,2.2,2.2,0,0,0,.5-1.1v-2l-1.4-11.2-2.4-22.6-2.3-18.3-1.6-15.6-.7-8.6a14.9,14.9,0,0,0-.2-1.7c-.2-.5-.5-.7-.8-.6s-1.4,1.7-1.4,1.7l-4.2,9.7-7.9,17.9-15.9,33.9-7.7,14.2-54.7-4.6,8-14.3,10.7-19.1,17.9-31.9,9.2-16.4,7-12.6,6.4-11.4,3-5.4,1.5-2.3,1.3-1.1,1-.4,1.6-.4h67.2l1.1.5.6.7.4,1.1.8,4.6,2.7,18.1,2.6,16,4,25,3.6,23.6,2.8,19.3,3.1,20.3,5.6,36.3,4.2,25.8,1.6,9.7v1.7l-.2,1.8-.2.7-1.2,1.1-2.5.6-3.8.2h-34s-7.6.2-10.1.1a6.9,6.9,0,0,1-2.5-.4,3.6,3.6,0,0,1-1.5-1,6.1,6.1,0,0,1-.8-2.5l-.7-5.3-1.9-15.6-1.4-13s-.2-2.8-1-3.8a1.5,1.5,0,0,0-1.3-.6h-71.5l-1.9.5-1.6,1.5-2.4,4.3-11.4,21.5-4.6,8.5-2.1,3.9-1,1.3-2,.7H1421a.8.8,0,0,1-.7-1.3l4.1-7.5,11-19.8,14.3-25.4,18.6-33.2,3.4-6.1,51.1,3.6,3.5,1.2Z" fill="#fff"/><path d="M1165.3,412.3a8.4,8.4,0,0,1-.2-1l.2-2,.5-2.3.6-2.4.6-2,.9-1.8.7-1.1.7-.7.8-.7,1-.7,1.2-.5,1.5-.5,1.6-.3,1.7-.2h9.4l1,.2,1,.2,1.2.4.8.3,1,.6,1,.7,1.1,1,.7,1,.8,1.3.4,1.4.3,1.7v1.4l-.2,1.5-.4,1.6-.6,1.5-.6,1.2-.5.6-.8.5h-25.5l-1.2-.3-.5-.3.2,6.7h31.6l1.3-.2.6-.2.5-.2.6-.5.5-.7.4-1.1.3-1.5.2-1.8v-1.1l.2-2.4.2-1.3.4-1.5v-2.8l-.2-1.8-.3-1.4-.5-1.7-.7-1.8-.9-1.5-.8-1.1-1.2-1.2-1.7-1.3-1.3-.6-1.4-.4-2.4-.7-2.2-.5-1.9-.3h-6.8l-2.6.2-1.9.2-1.9.4-1.6.4-1.6.5-1.4.5-1.6.8-1.4.9-1.3.8-1.4,1.3-1.1,1.2-.7.9-.5.8-.8,1.3-.9,1.6-.6,1.5-.7,2-.6,1.8-.4,1.6-.5,3.3-.4,2.6-.3,3-.3,2.8-.4,4-.4,3.7-.4,2.3s-.2,1.7-.2,2.7,0,1.3.1,2.5a9.3,9.3,0,0,0,.5,2.4c.2.6.5,1.4.9,2.3a12.9,12.9,0,0,0,1.3,1.8,14.9,14.9,0,0,0,1.8,1.8,16.4,16.4,0,0,0,2.2,1.5l2,.9,2.4.7a20.9,20.9,0,0,0,2.8.5l3.6.4H1184l3.7-.2,1.8-.2a13.1,13.1,0,0,0,2.7-.8l2.4-.8a3.6,3.6,0,0,0,1.5-.8,2.4,2.4,0,0,0,.7-.9,3.6,3.6,0,0,0,.3-1.6l-.3-1a1.4,1.4,0,0,0-.5-.7,3.5,3.5,0,0,0-1.4-.1,11.6,11.6,0,0,1-2.8.1h-21.8l-1.5-.3-1.4-.4-1.1-.6a6.2,6.2,0,0,1-1.1-.9,6.4,6.4,0,0,1-1-1.3l-.7-1.6-.4-1.9s-.2-1.5-.2-2.1.1-1.7.2-2.7.3-2.6.3-2.6l.4-2.5c0-.3.1-1.3.1-1.3l.3-1.1a2.7,2.7,0,0,1,.7-.8l.5-.3h.5s1-5.4-.2-6.6Z" fill="#fff"/><path d="M1261.8,395.9h11.8l2.1.6a5.9,5.9,0,0,1,1.8,1.3,9.4,9.4,0,0,1,1.3,2.4,21.6,21.6,0,0,1,.3,2.9l-.5,8-.8,6.6-1.3,8s-1.2,6.9-1.9,9.1a10,10,0,0,1-1.5,2.9,11.5,11.5,0,0,1-2.9,2,26.3,26.3,0,0,1-3.8.5h-14.1l-3.7-.6a6.4,6.4,0,0,1-2.2-1.4,7.5,7.5,0,0,1-1.6-2.9,30.7,30.7,0,0,1-.2-3.8l1.1-9,1.4-10.1s1-7.7,1.7-10.1a13.8,13.8,0,0,1,2-3.8,9.6,9.6,0,0,1,3.2-2,35.5,35.5,0,0,1,5.2-.6l.8-6.8-3.3.3-2.8.6a27.8,27.8,0,0,0-3.7,1.3c-.8.5-2.2,1.2-3.1,1.9a15.3,15.3,0,0,0-2.5,2.3,14.3,14.3,0,0,0-2.7,4.2,21.9,21.9,0,0,0-1.5,4.4c-.3,1.5-.8,4.5-1,6-1,5.8-1.7,11.5-1.7,11.5s-.5,5-.7,6.7a23.7,23.7,0,0,0-.1,5.9,14,14,0,0,0,1,5,9.4,9.4,0,0,0,2.9,4.2,12,12,0,0,0,3.8,2.1,21,21,0,0,0,4,1.1l4.7.4h12.4a18.7,18.7,0,0,0,4.2-.5,20.9,20.9,0,0,0,5-1.8,12.9,12.9,0,0,0,3.4-2.5,13.9,13.9,0,0,0,3-4,32.4,32.4,0,0,0,2-6.4c.6-2.3,1.5-6.9,1.9-9.3a115.6,115.6,0,0,0,1.5-13,60.4,60.4,0,0,0,.2-7.4,11.9,11.9,0,0,0-.9-4.9,12.1,12.1,0,0,0-3.9-4.9,16,16,0,0,0-4.5-2,39.3,39.3,0,0,0-8-1.1c-2.2-.2-6.8-.1-9,0h-1.5l-.5,6.7Z" fill="#fff"/><path d="M1374.4,419.1h12.4l1.1.3a4.4,4.4,0,0,1,.8.7,5.3,5.3,0,0,1,.2,1.6l-.4,2-.4,2.3-.3,2.7-.7,3.3-.6,2-.8,1.7a9.1,9.1,0,0,1-1.8,2.1,12.7,12.7,0,0,1-3.1,1.5c-1,.3-4,.7-4,.7h-10.4a15.9,15.9,0,0,1-2.3-.4,7.7,7.7,0,0,1-2.8-2.3,13.8,13.8,0,0,1-1.4-5,26,26,0,0,1,1.1-6.2,13.2,13.2,0,0,1,2.2-4.8,11.7,11.7,0,0,1,4.4-2,41.6,41.6,0,0,1,4.4-.2l.4-6.1h-2.5l-3.1.3-2.8.6-3,1.1-2.4,1.4-2.1,1.9a24.8,24.8,0,0,0-1.9,2.6,19.7,19.7,0,0,0-1.6,3.8c-.4,1.6-.7,3.5-.9,4.7a34.2,34.2,0,0,0-.1,4.5,13.5,13.5,0,0,0,.4,3.9,15.4,15.4,0,0,0,1.2,3,9.4,9.4,0,0,0,2.3,2.7,8.8,8.8,0,0,0,3.8,2,36.1,36.1,0,0,0,6.8,1.3,30.1,30.1,0,0,0,6.5.2,23.7,23.7,0,0,0,5.4-1,14,14,0,0,0,4.9-2.3,33.7,33.7,0,0,0,3.6-2.8,7.5,7.5,0,0,0,.3,1.7,3.2,3.2,0,0,0,.9,1.6,3.8,3.8,0,0,0,2.3.9,8.1,8.1,0,0,0,3.1-.3,2.2,2.2,0,0,0,1.7-1.3,6.4,6.4,0,0,0-.1-2.6l-.2-1v-2.6l.6-7.2,1-8.2.8-5.2,1.3-8.4s1-6,1-8a13,13,0,0,0-1.1-5.1,7.6,7.6,0,0,0-2.4-3.1,11.9,11.9,0,0,0-5.1-2.1,46.7,46.7,0,0,0-6.3-1.1,51.9,51.9,0,0,0-7.1-.2,68.4,68.4,0,0,0-10,1.2s-4,.5-5.3,1.2a1.9,1.9,0,0,0-1.4,1.9,7,7,0,0,0,.3,3.2c.3.8,1.2.7,1.9.6h4.2c2.4.1,9.9,0,9.9,0h5.9s2.8-.1,3.4,0a12.3,12.3,0,0,1,2.1.5,4.9,4.9,0,0,1,1.6,1.2,4.1,4.1,0,0,1,.8,1.9,19,19,0,0,1-.1,3.4c-.1,1-.1,2.7-.2,3.5a17.5,17.5,0,0,1-.3,2.4c-.7,2.2-1.6,2.7-2.5,3.1s-2.4.2-4.9,0H1372l-.4,6.1Z" fill="#fff"/><path d="M1596.7,419.3H1609l1.2.2a4.4,4.4,0,0,1,.8.7,5.6,5.6,0,0,1,.2,1.6l-.4,2.1-.4,2.3-.4,2.7-.6,3.3-.6,1.9a14.6,14.6,0,0,1-.9,1.8,10.6,10.6,0,0,1-1.7,2,15.9,15.9,0,0,1-3.2,1.6l-3.9.6-5.1.2h-5.3a9.7,9.7,0,0,1-2.4-.4,8.2,8.2,0,0,1-2.7-2.2,12.6,12.6,0,0,1-1.5-5c-.1-1.6.8-4.8,1.2-6.3s1.2-3.9,2.2-4.8a10.9,10.9,0,0,1,4.4-1.9c1.1-.2,4.4-.3,4.4-.3l.4-6.1h-2.5l-3.1.4-2.9.6a17.2,17.2,0,0,0-2.9,1.1l-2.4,1.4a18.1,18.1,0,0,0-2.1,1.8,16.5,16.5,0,0,0-1.9,2.7,18.6,18.6,0,0,0-1.6,3.7,24.8,24.8,0,0,0-.9,4.8c-.1,1.1-.2,3.4-.2,4.5a17.4,17.4,0,0,0,.5,3.9,12.4,12.4,0,0,0,1.2,3,13.8,13.8,0,0,0,2.2,2.7,10.5,10.5,0,0,0,3.9,1.9,33.9,33.9,0,0,0,6.7,1.3,31.9,31.9,0,0,0,6.5.3,23.7,23.7,0,0,0,5.4-1,16.6,16.6,0,0,0,5-2.4,19.4,19.4,0,0,0,3.5-2.8s.2,1.4.3,1.8a8.3,8.3,0,0,0,.9,1.6,4,4,0,0,0,2.4.9,8.4,8.4,0,0,0,3.1-.3,2.2,2.2,0,0,0,1.7-1.3,6.2,6.2,0,0,0-.2-2.7v-3.6l.5-7.2,1.1-8.2.8-5.1,1.3-8.5a64.7,64.7,0,0,0,.9-8,11.6,11.6,0,0,0-1-5.1,9.8,9.8,0,0,0-2.4-3,12.5,12.5,0,0,0-5.1-2.2,45.8,45.8,0,0,0-6.4-1.1c-2-.1-4.2-.3-7-.2a89.4,89.4,0,0,0-10,1.2,31.8,31.8,0,0,0-5.3,1.2,1.9,1.9,0,0,0-1.4,1.9,8.7,8.7,0,0,0,.2,3.2c.4.8,1.3.7,2,.7a29.6,29.6,0,0,1,4.1-.1h19.3a5.8,5.8,0,0,1,2,.5,4.4,4.4,0,0,1,1.7,1.1,4.5,4.5,0,0,1,.8,1.9,13.2,13.2,0,0,1-.2,3.5c0,1-.1,2.6-.1,3.5a17.2,17.2,0,0,1-.4,2.4c-.7,2.2-1.6,2.7-2.4,3s-2.5.3-4.9,0a43.4,43.4,0,0,0-5.1,0h-6l-.5,6.1Z" fill="#fff"/><path d="M1543.2,396.1h2.5l3.4.4s5.1.7,6.6,1.6a5.9,5.9,0,0,1,2.7,2.9c.5,1.2.2,3.9.1,5.1-.4,2.7-1.8,10.7-1.8,10.7l-2.1,14.7a29.8,29.8,0,0,1-.9,5.1c-.4,1-1.7,1.3-3.2,1.6s-5.1.9-6.8,1.1-5.7.4-8.7.4a20.3,20.3,0,0,1-4.2-.3,8.6,8.6,0,0,1-3.5-1.2,4.2,4.2,0,0,1-1.7-3,24.7,24.7,0,0,1,.4-5.1l1.5-11.8,1.7-12.4s.6-4.3,1.8-6.3,2.8-2.6,5.7-3.3a36.8,36.8,0,0,1,5.1-.3l.3-7.1-4.8.3a24.2,24.2,0,0,0-5.9,1.5,16.2,16.2,0,0,0-4.3,2.5,15.9,15.9,0,0,0-3.5,4.7,23.5,23.5,0,0,0-1.9,5.5c-.4,1.8-1.2,6.8-1.2,6.8l-1.4,9.2-1.5,11.7a53.5,53.5,0,0,0-.6,6.4,8.5,8.5,0,0,0,1.6,5,8.6,8.6,0,0,0,4.2,3,35,35,0,0,0,9.4,1.5,55.2,55.2,0,0,0,7.2-.1,35.3,35.3,0,0,0,7.8-2l3-1.3c.8-.4,1.2-1.2,1.8-1.1a1.3,1.3,0,0,1,1.2.7,3.5,3.5,0,0,0,1.4,1.8,3.8,3.8,0,0,0,2.5.3,17.5,17.5,0,0,0,3.3-.5,1.5,1.5,0,0,0,.8-1.3v-2.2l.6-3.9,2.7-18.3,2-13.7,1.7-13,2.6-19s.4-2.4.4-3.2-.8-2.2-1.3-2.3a6.5,6.5,0,0,0-2,0,10.6,10.6,0,0,0-3,.1c-1,.3-1.7.6-1.9,2.7s-1.1,9.9-1.1,9.9l-1.6,10.1-.4,2.6-2.8-1.5a29.3,29.3,0,0,0-6.3-2.2,27.3,27.3,0,0,0-4.9-.7h-4.6l-.3,7.1Z" fill="#fff"/></svg>